# AST/ASF file generated using VICON BodyLanguage
# -----------------------------------------------
:version 1.10
:name VICON
:units
  mass 1.0
  length 0.45
  angle deg
:documentation
   .ast/.asf automatically generated from VICON data using
   VICON BodyBuilder and BodyLanguage model FoxedUp or BRILLIANT.MOD
:root
   order TX TY TZ RX RY RZ
   axis XYZ
   position 0 0 0  
   orientation 0 0 0 
:bonedata
  begin
     id 1 
     name lhipjoint
     direction 0.440178 -0.822639 0.359871 
     length 2.53113 
     axis 0 0 0  XYZ
  end
  begin
     id 2 
     name lfemur
     direction 0.34202 -0.939693 0  
     length 7.88132  
     axis 0 0 20  XYZ
    dof rx ry rz
    limits (-160.0 20.0)
           (-70.0 70.0)
           (-60.0 70.0)
  end
  begin
     id 3 
     name ltibia
     direction 0.34202 -0.939693 0   
     length 8.43783   
     axis 0 0 20   XYZ
    dof rx
    limits (-10.0 170.0)
  end
  begin
     id 4 
     name lfoot
     direction 0.0886351 -0.243523 0.965837   
     length 2.63414   
     axis -90 7.62852e-016 20   XYZ
    dof rx rz
    limits (-45.0 90.0)
           (-70.0 20.0)
  end
  begin
     id 5 
     name ltoes
     direction 1.53703e-011 -4.21717e-011 1   
     length 1.31427   
     axis -90 7.62852e-016 20   XYZ
    dof rx
    limits (-90.0 20.0)
  end
  begin
     id 6 
     name rhipjoint
     direction -0.399779 -0.839773 0.367367   
     length 2.47948  
     axis 0 0 0  XYZ 
  end
  begin
     id 7 
     name rfemur
     direction -0.34202 -0.939693 0   
     length 7.74806   
     axis 0 0 -20   XYZ
    dof rx ry rz
    limits (-160.0 20.0)
           (-70.0 70.0)
           (-70.0 60.0)
  end
  begin
     id 8 
     name rtibia
     direction -0.34202 -0.939693 0   
     length 8.74432   
     axis 0 0 -20   XYZ
    dof rx
    limits (-10.0 170.0)
 end
 begin
     id 9 
     name rfoot
     direction -0.108514 -0.298139 0.948334   
     length 2.66102  
     axis -90 -7.62852e-016 -20   XYZ
    dof rx rz
    limits (-45.0 90.0)
           (-20.0 70.0)
  end
  begin
     id 10 
     name rtoes
     direction -1.53392e-011 -4.22077e-011 1   
     length 1.31983   
     axis -90 -7.62852e-016 -20   XYZ
    dof rx
    limits (-90.0 20.0)
  end
  begin
     id 11 
     name lowerback
     direction 0.0113257 0.999866 0.0118602   
     length 2.58694   
     axis 0 0 0   XYZ
    dof rx ry rz
    limits (-20.0 45.0)
           (-30.0 30.0)
           (-30.0 30.0)
  end
  begin
     id 12 
     name upperback
     direction -0.0164747 0.995193 -0.0965375   
     length 2.52368   
     axis 0 0 0   XYZ
    dof rx ry rz
    limits (-20.0 45.0)
           (-30.0 30.0)
           (-30.0 30.0)
  end
  begin
     id 13 
     name thorax
     direction -0.0194301 0.99433 -0.104552   
     length 2.56099   
     axis 0 0 0   XYZ
    dof rx ry rz
    limits (-20.0 45.0)
           (-30.0 30.0)
           (-30.0 30.0)
  end
  begin
     id 14 
     name lowerneck
     direction 0.0148543 0.995587 -0.092657   
     length 1.71582   
     axis 0 0 0   XYZ
    dof rx ry rz
    limits (-20.0 45.0)
           (-30.0 30.0)
           (-30.0 30.0)
  end
  begin
     id 15 
     name upperneck
     direction -0.0135467 0.993656 -0.111639   
     length 1.68937   
     axis 0 0 0   XYZ
    dof rx ry rz
    limits (-20.0 45.0)
           (-30.0 30.0)
           (-30.0 30.0)
  end
  begin
     id 16
     name head
     direction -0.00615349 0.999547 -0.029448  
     length 1.7462  
     axis 0 0 0   XYZ
    dof rx ry rz
    limits (-20.0 45.0)
           (-30.0 30.0)
           (-30.0 30.0)
  end
  begin
     id 17 
     name lclavicle
     direction 0.988267 0.149885 0.0293713  
     length 4.47222  
     axis 0 0 0   XYZ
    dof ry rz
    limits (-20.0 10.0)
           (0.0 20.0)
  end
  begin
     id 18 
     name lhumerus
     direction 1 -4.48986e-011 -1.14833e-027   
     length 5.37148   
     axis 180 -30 -90   XYZ
    dof rx ry rz
    limits (-60.0 90.0)
           (-90.0 90.0)
           (-90.0 90.0)
  end
  begin
     id 19
     name lradius
     direction 0.999998 0.00170963 -0.000987055   
     length 3.94212   
     axis 180 -30 -90   XYZ
    dof rx
    limits (-10.0 170.0)
  end
  begin
     id 20
     name lwrist
     direction 0.999998 7.53149e-005 -0.00194706   
     length 1.97106   
     axis 4.65056e-015 90 90   XYZ
    dof ry
    limits (-180.0 0.0)
 end
  begin
     id 21 
     name lhand
     direction 1 -4.48973e-011 -1.31746e-026   
     length 1.17917   
     axis 8.4065e-015 90 90   XYZ
    dof rx rz
    limits (-90.0 90.0)
           (-45.0 45.0)
  end
  begin
     id 22 
     name lfingers
     direction 1 -4.49107e-011 -2.63492e-026   
     length 0.950679   
     axis 1.6813e-014 90 90   XYZ
    dof rx
    limits (0.0 90.0)
  end
  begin
     id 23
     name lthumb
     direction 0.707107 -6.35048e-011 0.707107   
     length 1.36499   
     axis -90 45 2.85299e-015   XYZ
    dof rx rz
    limits (-45.0 45.0)
           (-45.0 45.0)
  end
  begin
     id 24 
     name rclavicle
     direction -0.996699 0.0642895 -0.0495725   
     length 4.62611  
     axis 0 0 0   XYZ 
    dof ry rz
    limits (-10.0 20.0)
           (-20.0 0.0)
  end
  begin
     id 25 
     name rhumerus
     direction -1 -4.48919e-011 -2.41059e-027  
     length 5.4981   
     axis 180 30 90   XYZ
    dof rx ry rz
    limits (-90.0 60.0)
           (-90.0 90.0)
           (-90.0 90.0)
  end
  begin
     id 26 
     name rradius
     direction -0.999999 0.00118101 -0.000681858   
     length 3.48381   
     axis 180 30 90   XYZ
    dof rx
    limits (-10.0 170.0)
  end
  begin
     id 27 
     name rwrist
     direction -0.999999 0.000321823 -0.00132288   
     length 1.7419   
     axis 4.65056e-015 -90 -90   XYZ
    dof ry
    limits (-180.0 0.0)
  end
  begin
     id 28
     name rhand
     direction -1 -4.49022e-011 -1.31746e-026   
     length 1.34932   
     axis 8.4065e-015 -90 -90   XYZ
    dof rx rz
    limits (-90.0 90.0)
           (-45.0 45.0)
  end
  begin
     id 29
     name rfingers
     direction -1 -4.49178e-011 -2.63492e-026   
     length 1.08785   
     axis 1.6813e-014 -90 -90   XYZ
    dof rx
    limits (0.0 90.0)
  end
  begin
     id 30
     name rthumb
     direction -0.707107 -6.34713e-011 0.707107   
     length 1.56195   
     axis -90 -45 -2.85299e-015   XYZ
    dof rx rz
    limits (-45.0 45.0)
           (-45.0 45.0)
  end
:hierarchy
  begin
    root lhipjoint rhipjoint lowerback
    lhipjoint lfemur
    lfemur ltibia
    ltibia lfoot
    lfoot ltoes
    rhipjoint rfemur
    rfemur rtibia
    rtibia rfoot
    rfoot rtoes
    lowerback upperback
    upperback thorax
    thorax lowerneck lclavicle rclavicle
    lowerneck upperneck
    upperneck head
    lclavicle lhumerus
    lhumerus lradius
    lradius lwrist
    lwrist lhand lthumb
    lhand lfingers
    rclavicle rhumerus
    rhumerus rradius
    rradius rwrist
    rwrist rhand rthumb
    rhand rfingers
  end

#!OML:ASF X:\für Bonn\!DataBase\2005_08_10_Bjorn_Final\c3d\bjorn.ASF
:FULLY-SPECIFIED
:DEGREES
1
root 5.39672 19.0894 2.05114 -189.367 82.8066 -184.365
lowerback 0.333083 -0.512863 7.33518
upperback 9.28113 -0.791781 1.66303
thorax 9.6057 0.292131 -2.351
lowerneck -0.22508 -2.7528 6.07025
upperneck 22.7195 -2.3444 -5.15509
head 6.78376 -0.690989 -2.7945
rclavicle -1.5704e-014 -2.8625e-014
rhumerus -24.4306 -24.6456 -79.5218
rradius 19.2162
rwrist 12.2663
rhand -15.809 11.1696
rfingers 7.12502
rthumb 10.3844 -18.554
lclavicle -1.5704e-014 -2.8625e-014
lhumerus -25.6385 -1.97241 90.4339
lradius 16.7362
lwrist -40.6132
lhand -4.08127 -5.9656
lfingers 7.12502
lthumb 21.6759 22.841
rfemur -17.9192 -8.72281 16.411
rtibia 30.7509
rfoot -2.21311 11.6836
rtoes -1.93869
lfemur 0.554466 6.03132 -13.314
ltibia 58.5549
lfoot 2.27862 6.38258
ltoes -14.1082
2
root 5.50279 19.1222 2.06812 -189.694 82.8022 -184.87
lowerback 0.234349 -0.36815 7.26245
upperback 9.30079 -0.600255 1.58844
thorax 9.70457 0.386365 -2.37539
lowerneck -0.284289 -2.83863 6.02473
upperneck 22.7621 -2.45538 -5.166
head 6.80145 -0.747368 -2.79755
rclavicle -6.36111e-015 -1.59028e-015
rhumerus -23.7173 -23.5922 -80.2558
rradius 19.8231
rwrist 11.1822
rhand -16.0586 11.2654
rfingers 7.12502
rthumb 10.1436 -18.4701
lclavicle -6.36111e-015 -1.59028e-015
lhumerus -26.1073 -1.7316 90.3545
lradius 16.6089
lwrist -41.0777
lhand -3.41173 -6.01149
lfingers 7.12502
lthumb 22.3188 22.7195
rfemur -17.515 -8.83277 16.4204
rtibia 30.3474
rfoot -2.3754 11.807
rtoes -1.80028
lfemur -0.653242 6.67219 -13.3912
ltibia 58.5576
lfoot 1.62998 5.64671
ltoes -13.1908
3
root 5.60612 19.1527 2.08478 -190.27 82.7735 -185.652
lowerback 0.118958 -0.2132 7.15733
upperback 9.32251 -0.39309 1.48737
thorax 9.81685 0.486998 -2.40813
lowerneck -0.375842 -2.94228 6.056
upperneck 22.82 -2.5918 -5.21048
head 6.82639 -0.812466 -2.82677
rclavicle -2.22639e-014 5.56597e-015
rhumerus -23.0217 -22.6735 -80.9442
rradius 20.4402
rwrist 10.1972
rhand -16.2572 11.3331
rfingers 7.12502
rthumb 9.95202 -18.4117
lclavicle -2.22639e-014 5.56597e-015
lhumerus -26.6087 -1.61645 90.2881
lradius 16.6348
lwrist -41.2934
lhand -2.92994 -5.94575
lfingers 7.12502
lthumb 22.7812 22.7291
rfemur -17.1789 -8.96513 16.3885
rtibia 29.9962
rfoot -2.53944 11.9535
rtoes -1.55197
lfemur -1.87738 7.31473 -13.5383
ltibia 58.4218
lfoot 1.08274 4.9075
ltoes -13.2591
4
root 5.70828 19.1792 2.1017 -190.79 82.7576 -186.32
lowerback 0.0722148 -0.0636795 7.04182
upperback 9.35504 -0.184628 1.3906
thorax 9.90033 0.587262 -2.42948
lowerneck -0.42112 -3.05534 6.12211
upperneck 22.8341 -2.73693 -5.28663
head 6.82708 -0.881848 -2.87105
rclavicle 1.0138e-014 2.70347e-014
rhumerus -22.364 -21.7862 -81.595
rradius 21.0646
rwrist 9.27257
rhand -16.413 11.4489
rfingers 7.12502
rthumb 9.80169 -18.303
lclavicle 1.0138e-014 2.70347e-014
lhumerus -27.1245 -1.43887 90.2045
lradius 16.7119
lwrist -41.4067
lhand -2.61812 -5.85145
lfingers 7.12502
lthumb 23.0804 22.7863
rfemur -16.8088 -9.10585 16.364
rtibia 29.6901
rfoot -2.728 12.1135
rtoes -1.48314
lfemur -3.01057 7.95693 -13.6806
ltibia 58.1645
lfoot 0.471065 4.23404
ltoes -13.7133
5
root 5.80866 19.2018 2.11899 -190.837 82.7831 -186.521
lowerback -0.000442543 0.087523 6.97478
upperback 9.40861 0.0207698 1.31511
thorax 10.0241 0.691313 -2.45392
lowerneck -0.426785 -3.15136 6.13984
upperneck 22.7604 -2.8645 -5.33546
head 6.79468 -0.947214 -2.89486
rclavicle -5.96354e-016 3.02153e-014
rhumerus -21.7066 -20.9164 -82.1978
rradius 21.7111
rwrist 8.38286
rhand -16.5522 11.6405
rfingers 7.12502
rthumb 9.66737 -18.1177
lclavicle -5.96354e-016 3.02153e-014
lhumerus -27.5694 -1.29414 90.1559
lradius 16.8189
lwrist -41.2711
lhand -2.29326 -5.6144
lfingers 7.12502
lthumb 23.3921 22.984
rfemur -16.4876 -9.24964 16.4179
rtibia 29.4234
rfoot -2.85997 12.312
rtoes -1.05498
lfemur -4.14831 8.64723 -13.7693
ltibia 57.8211
lfoot -0.0765268 3.53584
ltoes -14.078
6
root 5.90779 19.2217 2.13476 -190.48 82.8274 -186.278
lowerback -0.0143653 0.233008 6.9739
upperback 9.46085 0.221478 1.24395
thorax 10.1129 0.797804 -2.51062
lowerneck -0.40063 -3.23475 6.12116
upperneck 22.659 -2.97963 -5.34156
head 6.75025 -1.00662 -2.89671
rclavicle -3.79679e-014 5.56597e-015
rhumerus -21.0695 -20.1359 -82.747
rradius 22.305
rwrist 7.66663
rhand -16.7601 11.9384
rfingers 7.12502
rthumb 9.46684 -17.829
lclavicle -3.79679e-014 5.56597e-015
lhumerus -28.021 -1.25802 90.1348
lradius 16.9724
lwrist -40.899
lhand -2.08161 -5.30008
lfingers 7.12502
lthumb 23.5951 23.2723
rfemur -16.1554 -9.42543 16.523
rtibia 29.2
rfoot -3.03496 12.5635
rtoes -0.866843
lfemur -5.23819 9.33561 -13.8167
ltibia 57.3919
lfoot -0.766581 2.66845
ltoes -14.943
7
root 6.00497 19.2393 2.15142 -189.968 82.8917 -185.869
lowerback -0.010537 0.391992 6.99736
upperback 9.52716 0.441918 1.16968
thorax 10.2106 0.91738 -2.5818
lowerneck -0.34627 -3.32738 6.02147
upperneck 22.5004 -3.11366 -5.29521
head 6.68421 -1.0791 -2.86695
rclavicle 3.97569e-015 -4.29375e-014
rhumerus -20.4473 -19.2026 -83.3111
rradius 22.9983
rwrist 6.76126
rhand -16.9753 12.1879
rfingers 7.12502
rthumb 9.25916 -17.5888
lclavicle 3.97569e-015 -4.29375e-014
lhumerus -28.4156 -1.2827 90.1108
lradius 17.144
lwrist -40.4317
lhand -1.89617 -4.99202
lfingers 7.12502
lthumb 23.773 23.5573
rfemur -15.8379 -9.53982 16.6555
rtibia 29.0131
rfoot -3.2112 12.7765
rtoes -0.633191
lfemur -6.33835 10.0534 -13.8499
ltibia 56.9011
lfoot -1.62445 1.63682
ltoes -16.7769
8
root 6.09931 19.2541 2.16705 -189.605 82.9585 -185.622
lowerback 0.00123018 0.547978 6.99694
upperback 9.58374 0.661059 1.08406
thorax 10.2926 1.03389 -2.65205
lowerneck -0.182384 -3.41759 5.91318
upperneck 22.2208 -3.24462 -5.24309
head 6.561 -1.15224 -2.82896
rclavicle 1.98785e-014 -3.02153e-014
rhumerus -19.8402 -18.4649 -83.7936
rradius 23.658
rwrist 6.12068
rhand -17.1713 12.5628
rfingers 7.12502
rthumb 9.07008 -17.2221
lclavicle 1.98785e-014 -3.02153e-014
lhumerus -28.793 -1.48841 90.1492
lradius 17.3017
lwrist -39.5735
lhand -1.91482 -4.70453
lfingers 7.12502
lthumb 23.7551 23.8472
rfemur -15.5882 -9.71671 16.7633
rtibia 28.8829
rfoot -3.35161 13.0488
rtoes -0.295849
lfemur -7.45879 10.7462 -13.9492
ltibia 56.3457
lfoot -2.57589 0.676559
ltoes -18.4602
9
root 6.19287 19.2656 2.18236 -189.239 83.0371 -185.383
lowerback 0.0144205 0.710534 7.00225
upperback 9.63638 0.889949 0.985525
thorax 10.3718 1.15605 -2.7383
lowerneck -0.0869497 -3.50609 5.81519
upperneck 21.9832 -3.37824 -5.18681
head 6.4636 -1.22577 -2.79365
rclavicle 1.19271e-015 7.15625e-015
rhumerus -19.2866 -17.5649 -84.2599
rradius 24.3523
rwrist 5.35248
rhand -17.4297 12.9542
rfingers 7.12502
rthumb 8.8207 -16.8415
lclavicle 1.19271e-015 7.15625e-015
lhumerus -29.1566 -1.72397 90.167
lradius 17.4309
lwrist -38.6927
lhand -2.23801 -4.61501
lfingers 7.12502
lthumb 23.4451 23.9766
rfemur -15.367 -9.90307 16.8707
rtibia 28.7804
rfoot -3.48594 13.3458
rtoes 0.000607448
lfemur -8.59144 11.4584 -14.0609
ltibia 55.73
lfoot -3.42654 -0.111809
ltoes -19.388
10
root 6.28359 19.2746 2.19856 -188.883 83.1208 -185.133
lowerback 0.0816439 0.873315 6.99126
upperback 9.68391 1.12561 0.887723
thorax 10.4137 1.27919 -2.81505
lowerneck 0.00282902 -3.60041 5.69419
upperneck 21.7438 -3.5266 -5.09045
head 6.36788 -1.30551 -2.74226
rclavicle 1.27222e-014 -1.90833e-014
rhumerus -18.7654 -16.666 -84.6666
rradius 25.0418
rwrist 4.62684
rhand -17.6304 13.1525
rfingers 7.12502
rthumb 8.62698 -16.6513
lclavicle 1.27222e-014 -1.90833e-014
lhumerus -29.5404 -1.96066 90.1657
lradius 17.5725
lwrist -37.8462
lhand -2.70086 -4.66713
lfingers 7.12502
lthumb 23.001 23.9805
rfemur -15.16 -10.0636 16.9836
rtibia 28.7136
rfoot -3.6744 13.6308
rtoes -0.0308253
lfemur -9.68168 12.1399 -14.1836
ltibia 55.0401
lfoot -4.30649 -0.686729
ltoes -20.113
11
root 6.37217 19.2841 2.21388 -188.509 83.1897 -184.866
lowerback 0.155583 1.01554 6.96752
upperback 9.74684 1.33553 0.793021
thorax 10.4663 1.38987 -2.88349
lowerneck 0.125433 -3.67626 5.58683
upperneck 21.4101 -3.65599 -4.9931
head 6.23788 -1.37799 -2.68945
rclavicle -3.10104e-014 -7.95139e-016
rhumerus -18.216 -15.706 -85.0387
rradius 25.7141
rwrist 3.94452
rhand -17.7957 13.2395
rfingers 7.12502
rthumb 8.46746 -16.5708
lclavicle -3.10104e-014 -7.95139e-016
lhumerus -29.9082 -2.13767 90.1389
lradius 17.7487
lwrist -36.9434
lhand -3.17001 -4.80987
lfingers 7.12502
lthumb 22.5508 23.8931
rfemur -14.9709 -10.2362 17.0851
rtibia 28.6716
rfoot -3.84133 13.907
rtoes 0.179159
lfemur -10.7308 12.8341 -14.3109
ltibia 54.2794
lfoot -5.275 -1.08874
ltoes -20.8503
12
root 6.45932 19.2948 2.23004 -188.477 83.2537 -184.934
lowerback 0.243954 1.15891 6.89082
upperback 9.83328 1.55308 0.688858
thorax 10.5362 1.50213 -2.93162
lowerneck 0.213069 -3.76368 5.4232
upperneck 21.0697 -3.81166 -4.83912
head 6.11395 -1.4646 -2.61092
rclavicle -1.86858e-014 -1.27222e-014
rhumerus -17.6633 -14.7723 -85.3719
rradius 26.4188
rwrist 3.35877
rhand -17.9536 13.2325
rfingers 7.12502
rthumb 8.31507 -16.5838
lclavicle -1.86858e-014 -1.27222e-014
lhumerus -30.2258 -2.48576 90.1586
lradius 17.9386
lwrist -35.8527
lhand -3.7338 -5.05636
lfingers 7.12502
lthumb 22.0096 23.7113
rfemur -14.7961 -10.3896 17.1417
rtibia 28.6681
rfoot -4.02706 14.1835
rtoes 0.432194
lfemur -11.7302 13.4974 -14.4771
ltibia 53.4465
lfoot -6.22559 -1.33825
ltoes -21.3725
13
root 6.54235 19.2993 2.24652 -188.42 83.2952 -184.955
lowerback 0.414195 1.29463 6.78615
upperback 9.89866 1.76866 0.591453
thorax 10.5309 1.6081 -2.96036
lowerneck 0.342723 -3.86006 5.25546
upperneck 20.743 -3.98443 -4.62259
head 5.98925 -1.55387 -2.51201
rclavicle -1.21259e-014 2.62396e-014
rhumerus -17.1531 -13.8796 -85.6411
rradius 27.0377
rwrist 2.86304
rhand -18.1409 13.3671
rfingers 7.12502
rthumb 8.13431 -16.4563
lclavicle -1.21259e-014 2.62396e-014
lhumerus -30.5538 -2.83682 90.1798
lradius 18.1215
lwrist -34.8237
lhand -4.27938 -5.33894
lfingers 7.12502
lthumb 21.4857 23.4895
rfemur -14.6409 -10.5377 17.2031
rtibia 28.7417
rfoot -4.27667 14.443
rtoes 0.537384
lfemur -12.6658 14.109 -14.6325
ltibia 52.557
lfoot -7.09246 -1.34744
ltoes -21.3621
14
root 6.62455 19.3 2.26217 -188.393 83.3314 -184.995
lowerback 0.575776 1.43422 6.67526
upperback 9.99978 1.99095 0.490404
thorax 10.5724 1.72049 -2.98788
lowerneck 0.445021 -3.96186 5.07171
upperneck 20.4013 -4.17868 -4.3361
head 5.86707 -1.65139 -2.38971
rclavicle 1.53064e-014 1.59028e-015
rhumerus -16.6204 -13.004 -85.8892
rradius 27.6497
rwrist 2.23609
rhand -18.3495 13.4996
rfingers 7.12502
rthumb 7.93302 -16.3315
lclavicle 1.53064e-014 1.59028e-015
lhumerus -30.7911 -3.13731 90.1481
lradius 18.349
lwrist -34.0703
lhand -4.65618 -5.55543
lfingers 7.12502
lthumb 21.1237 23.3139
rfemur -14.5288 -10.68 17.2473
rtibia 28.9065
rfoot -4.55439 14.7153
rtoes 0.77928
lfemur -13.544 14.6439 -14.7977
ltibia 51.5902
lfoot -7.86075 -1.22499
ltoes -20.3036
15
root 6.70448 19.2929 2.27832 -188.544 83.3666 -185.202
lowerback 0.765341 1.57039 6.50711
upperback 10.1029 2.21352 0.397533
thorax 10.5953 1.82742 -2.97617
lowerneck 0.507852 -4.07091 4.93408
upperneck 20.1535 -4.37034 -4.10707
head 5.77954 -1.74589 -2.29603
rclavicle 2.20651e-014 -1.82882e-014
rhumerus -16.0969 -12.1179 -86.0845
rradius 28.233
rwrist 1.63134
rhand -18.5199 13.7002
rfingers 7.12502
rthumb 7.7686 -16.1371
lclavicle 2.20651e-014 -1.82882e-014
lhumerus -30.9769 -3.3525 90.0893
lradius 18.5589
lwrist -33.6002
lhand -4.95431 -5.79552
lfingers 7.12502
lthumb 20.8373 23.1055
rfemur -14.4689 -10.838 17.2742
rtibia 29.1671
rfoot -4.89055 15.0087
rtoes 0.700998
lfemur -14.3877 15.0855 -14.9841
ltibia 50.5566
lfoot -8.62624 -1.03475
ltoes -18.9433
